solid 0
facet normal 0 0 -1
outer loop
vertex -4.62307945665474 -3.82454393849214 30
vertex -5.42896231479612 -2.55467574939044 30
vertex -2.89052204461029 5.25784008026318 30
endloop
endfacet
facet normal 0 0 -1
outer loop
vertex -3.52671151375484 -4.85410196624968 30
vertex -4.62307945665474 -3.82454393849214 30
vertex -2.20874731610807 -5.57865891532951 30
endloop
endfacet
facet normal 0 0 -1
outer loop
vertex -4.62307945665474 -3.82454393849214 30
vertex -2.89052204461029 5.25784008026318 30
vertex -2.20874731610807 -5.57865891532951 30
endloop
endfacet
facet normal 0 0 -1
outer loop
vertex -2.20874731610807 -5.57865891532951 30
vertex -2.89052204461029 5.25784008026318 30
vertex -0.751999401385823 -5.95268820788687 30
endloop
endfacet
facet normal 0 0 -1
outer loop
vertex -2.89052204461029 5.25784008026318 30
vertex 2.20874731610807 -5.57865891532951 30
vertex -0.751999401385823 -5.95268820788687 30
endloop
endfacet
facet normal 0 0 -1
outer loop
vertex -0.751999401385823 -5.95268820788687 30
vertex 2.20874731610807 -5.57865891532951 30
vertex 0.751999401385825 -5.95268820788687 30
endloop
endfacet
facet normal 0 -0 -1
outer loop
vertex -4.10728263557213 4.37381176452847 30
vertex -2.89052204461029 5.25784008026318 30
vertex -5.06596755301209 3.21496076987398 30
endloop
endfacet
facet normal 0 0 -1
outer loop
vertex -2.89052204461029 5.25784008026318 30
vertex -5.42896231479612 -2.55467574939044 30
vertex -5.06596755301209 3.21496076987398 30
endloop
endfacet
facet normal 0 0 -1
outer loop
vertex -5.06596755301209 3.21496076987398 30
vertex -5.42896231479612 -2.55467574939044 30
vertex -5.70633909777092 1.85410196624969 30
endloop
endfacet
facet normal 0 0 -1
outer loop
vertex -5.42896231479612 -2.55467574939044 30
vertex -5.89372350437213 -1.12428788751435 30
vertex -5.70633909777092 1.85410196624969 30
endloop
endfacet
facet normal 0 0 -1
outer loop
vertex -5.70633909777092 1.85410196624969 30
vertex -5.89372350437213 -1.12428788751435 30
vertex -5.98816037056963 0.376743117175884 30
endloop
endfacet
facet normal -0 0 -1
outer loop
vertex 5.98816037056963 0.376743117175882 30
vertex 5.89372350437213 -1.12428788751435 30
vertex 5.70633909777092 1.85410196624969 30
endloop
endfacet
facet normal 0 0 -1
outer loop
vertex 5.89372350437213 -1.12428788751435 30
vertex -2.89052204461029 5.25784008026318 30
vertex 5.70633909777092 1.85410196624969 30
endloop
endfacet
facet normal 0 0 -1
outer loop
vertex 5.70633909777092 1.85410196624969 30
vertex -2.89052204461029 5.25784008026318 30
vertex 5.06596755301209 3.21496076987398 30
endloop
endfacet
facet normal 0 0 -1
outer loop
vertex -2.89052204461029 5.25784008026318 30
vertex -1.49213932298913 5.81149896677179 30
vertex 5.06596755301209 3.21496076987398 30
endloop
endfacet
facet normal 0 0 -1
outer loop
vertex 5.06596755301209 3.21496076987398 30
vertex -1.49213932298913 5.81149896677179 30
vertex 4.10728263557213 4.37381176452847 30
endloop
endfacet
facet normal 0 0 -1
outer loop
vertex -1.49213932298913 5.81149896677179 30
vertex -1.46952762458685e-015 6 30
vertex 4.10728263557213 4.37381176452847 30
endloop
endfacet
facet normal 0 0 -1
outer loop
vertex 4.10728263557213 4.37381176452847 30
vertex -1.46952762458685e-015 6 30
vertex 2.89052204461029 5.25784008026318 30
endloop
endfacet
facet normal 0 0 -1
outer loop
vertex -1.46952762458685e-015 6 30
vertex 1.49213932298913 5.81149896677179 30
vertex 2.89052204461029 5.25784008026318 30
endloop
endfacet
facet normal -0 0 -1
outer loop
vertex 3.52671151375484 -4.85410196624968 30
vertex 2.20874731610807 -5.57865891532951 30
vertex 4.62307945665474 -3.82454393849214 30
endloop
endfacet
facet normal 0 0 -1
outer loop
vertex 2.20874731610807 -5.57865891532951 30
vertex -2.89052204461029 5.25784008026318 30
vertex 4.62307945665474 -3.82454393849214 30
endloop
endfacet
facet normal 0 0 -1
outer loop
vertex 4.62307945665474 -3.82454393849214 30
vertex -2.89052204461029 5.25784008026318 30
vertex 5.42896231479612 -2.55467574939043 30
endloop
endfacet
facet normal 0 0 -1
outer loop
vertex -2.89052204461029 5.25784008026318 30
vertex 5.89372350437213 -1.12428788751435 30
vertex 5.42896231479612 -2.55467574939043 30
endloop
endfacet
facet normal 0.125333233564304 0.992114701314478 -6.42087619352545e-017
outer loop
vertex 1.49213932298913 5.81149896677179 85
vertex 0 6 30
vertex 0 6.00000000000001 85
endloop
endfacet
facet normal -0.125333233564304 0.992114701314478 -6.40854449145276e-017
outer loop
vertex 0 6 30
vertex -1.49213932298913 5.81149896677179 30
vertex 0 6.00000000000001 85
endloop
endfacet
facet normal -0.125333233564304 0.992114701314478 -6.46426049213035e-017
outer loop
vertex 0 6.00000000000001 85
vertex -1.49213932298913 5.81149896677179 30
vertex -1.49213932298913 5.81149896677179 85
endloop
endfacet
facet normal -0.368124552684678 0.929776485888251 -6.00587207207682e-017
outer loop
vertex -1.49213932298913 5.81149896677179 30
vertex -2.89052204461029 5.25784008026318 30
vertex -1.49213932298913 5.81149896677179 85
endloop
endfacet
facet normal -0.368124552684678 0.929776485888251 -6.07380180468623e-017
outer loop
vertex -1.49213932298913 5.81149896677179 85
vertex -2.89052204461029 5.25784008026318 30
vertex -2.89052204461029 5.25784008026319 85
endloop
endfacet
facet normal -0.587785252292473 0.809016994374948 -5.2258286223599e-017
outer loop
vertex -2.89052204461029 5.25784008026318 30
vertex -4.10728263557213 4.37381176452847 30
vertex -2.89052204461029 5.25784008026319 85
endloop
endfacet
facet normal -0.587785252292473 0.809016994374948 -5.2061158325882e-017
outer loop
vertex -2.89052204461029 5.25784008026319 85
vertex -4.10728263557213 4.37381176452847 30
vertex -4.10728263557213 4.37381176452848 85
endloop
endfacet
facet normal -0.770513242775789 0.63742398974869 -4.11742714104684e-017
outer loop
vertex -4.10728263557213 4.37381176452847 30
vertex -5.06596755301209 3.21496076987398 30
vertex -4.10728263557213 4.37381176452848 85
endloop
endfacet
facet normal -0.770513242775789 0.63742398974869 -4.16489266607056e-017
outer loop
vertex -4.10728263557213 4.37381176452848 85
vertex -5.06596755301209 3.21496076987398 30
vertex -5.06596755301209 3.21496076987399 85
endloop
endfacet
facet normal -0.904827052466019 0.425779291565073 -2.75031256962404e-017
outer loop
vertex -5.06596755301209 3.21496076987398 30
vertex -5.70633909777092 1.85410196624969 30
vertex -5.06596755301209 3.21496076987399 85
endloop
endfacet
facet normal -0.904827052466019 0.425779291565073 -2.77659511071371e-017
outer loop
vertex -5.06596755301209 3.21496076987399 85
vertex -5.70633909777092 1.85410196624969 30
vertex -5.70633909777092 1.85410196624969 85
endloop
endfacet
facet normal -0.982287250728689 0.187381314585725 -1.21038574450968e-017
outer loop
vertex -5.70633909777092 1.85410196624969 30
vertex -5.98816037056963 0.376743117175884 30
vertex -5.70633909777092 1.85410196624969 85
endloop
endfacet
facet normal -0.982287250728689 0.187381314585725 -1.12799176372744e-017
outer loop
vertex -5.70633909777092 1.85410196624969 85
vertex -5.98816037056963 0.376743117175884 30
vertex -5.98816037056963 0.376743117175888 85
endloop
endfacet
facet normal -0.998026728428272 -0.062790519529313 3.92919253781488e-018
outer loop
vertex -5.98816037056963 0.376743117175884 30
vertex -5.89372350437213 -1.12428788751435 30
vertex -5.98816037056963 0.376743117175888 85
endloop
endfacet
facet normal -0.998026728428272 -0.062790519529313 3.68766538141664e-018
outer loop
vertex -5.98816037056963 0.376743117175888 85
vertex -5.89372350437213 -1.12428788751435 30
vertex -5.89372350437213 -1.12428788751434 85
endloop
endfacet
facet normal -0.951056516295153 -0.309016994374949 1.87133335721198e-017
outer loop
vertex -5.89372350437213 -1.12428788751435 30
vertex -5.42896231479612 -2.55467574939044 30
vertex -5.89372350437213 -1.12428788751434 85
endloop
endfacet
facet normal -0.951056516295153 -0.309016994374949 1.73537194419607e-017
outer loop
vertex -5.89372350437213 -1.12428788751434 85
vertex -5.42896231479612 -2.55467574939044 30
vertex -5.42896231479612 -2.55467574939043 85
endloop
endfacet
facet normal -0.844327925502015 -0.535826794978996 3.02851688361999e-017
outer loop
vertex -5.42896231479612 -2.55467574939044 30
vertex -4.62307945665474 -3.82454393849214 30
vertex -5.42896231479612 -2.55467574939043 85
endloop
endfacet
facet normal -0.844327925502015 -0.535826794978996 3.47074388839213e-017
outer loop
vertex -5.42896231479612 -2.55467574939043 85
vertex -4.62307945665474 -3.82454393849214 30
vertex -4.62307945665474 -3.82454393849213 85
endloop
endfacet
facet normal -0.684547105928689 -0.728968627421411 4.70875784373904e-017
outer loop
vertex -4.62307945665474 -3.82454393849214 30
vertex -3.52671151375484 -4.85410196624968 30
vertex -4.62307945665474 -3.82454393849213 85
endloop
endfacet
facet normal -0.684547105928689 -0.728968627421411 4.85904144374899e-017
outer loop
vertex -4.62307945665474 -3.82454393849213 85
vertex -3.52671151375484 -4.85410196624968 30
vertex -3.52671151375484 -4.85410196624968 85
endloop
endfacet
facet normal -0.481753674101715 -0.876306680043864 5.66048496184743e-017
outer loop
vertex -3.52671151375484 -4.85410196624968 30
vertex -2.20874731610807 -5.57865891532951 30
vertex -3.52671151375484 -4.85410196624968 85
endloop
endfacet
facet normal -0.481753674101715 -0.876306680043864 5.55319022142741e-017
outer loop
vertex -3.52671151375484 -4.85410196624968 85
vertex -2.20874731610807 -5.57865891532951 30
vertex -2.20874731610807 -5.5786589153295 85
endloop
endfacet
facet normal -0.248689887164855 -0.968583161128631 6.25654299199549e-017
outer loop
vertex -2.20874731610807 -5.57865891532951 30
vertex -0.751999401385823 -5.95268820788687 30
vertex -2.20874731610807 -5.5786589153295 85
endloop
endfacet
facet normal -0.248689887164855 -0.968583161128631 6.24733899910584e-017
outer loop
vertex -2.20874731610807 -5.5786589153295 85
vertex -0.751999401385823 -5.95268820788687 30
vertex -0.751999401385823 -5.95268820788686 85
endloop
endfacet
facet normal 0 -1 6.45947941600091e-017
outer loop
vertex -0.751999401385823 -5.95268820788687 30
vertex 0.751999401385825 -5.95268820788687 30
vertex -0.751999401385823 -5.95268820788686 85
endloop
endfacet
facet normal 0 -1 6.45947941600091e-017
outer loop
vertex -0.751999401385823 -5.95268820788686 85
vertex 0.751999401385825 -5.95268820788687 30
vertex 0.751999401385825 -5.95268820788686 85
endloop
endfacet
facet normal 0.248689887164855 -0.968583161128631 6.25654299199549e-017
outer loop
vertex 0.751999401385825 -5.95268820788687 30
vertex 2.20874731610807 -5.57865891532951 30
vertex 0.751999401385825 -5.95268820788686 85
endloop
endfacet
facet normal 0.248689887164855 -0.968583161128631 6.16057040189604e-017
outer loop
vertex 0.751999401385825 -5.95268820788686 85
vertex 2.20874731610807 -5.57865891532951 30
vertex 2.20874731610807 -5.5786589153295 85
endloop
endfacet
facet normal 0.481753674101715 -0.876306680043863 5.66048496184743e-017
outer loop
vertex 2.20874731610807 -5.57865891532951 30
vertex 3.52671151375484 -4.85410196624968 30
vertex 2.20874731610807 -5.5786589153295 85
endloop
endfacet
facet normal 0.481753674101715 -0.876306680043864 5.72672741584702e-017
outer loop
vertex 2.20874731610807 -5.5786589153295 85
vertex 3.52671151375484 -4.85410196624968 30
vertex 3.52671151375484 -4.85410196624968 85
endloop
endfacet
facet normal 0.684547105928689 -0.728968627421412 4.70875784373905e-017
outer loop
vertex 3.52671151375484 -4.85410196624968 30
vertex 4.62307945665474 -3.82454393849214 30
vertex 3.52671151375484 -4.85410196624968 85
endloop
endfacet
facet normal 0.684547105928689 -0.728968627421412 4.68550424932938e-017
outer loop
vertex 3.52671151375484 -4.85410196624968 85
vertex 4.62307945665474 -3.82454393849214 30
vertex 4.62307945665474 -3.82454393849213 85
endloop
endfacet
facet normal 0.844327925502015 -0.535826794978997 3.46116215270857e-017
outer loop
vertex 4.62307945665474 -3.82454393849214 30
vertex 5.42896231479612 -2.55467574939043 30
vertex 4.62307945665474 -3.82454393849213 85
endloop
endfacet
facet normal 0.844327925502015 -0.535826794978996 3.29720669397253e-017
outer loop
vertex 4.62307945665474 -3.82454393849213 85
vertex 5.42896231479612 -2.55467574939043 30
vertex 5.42896231479612 -2.55467574939043 85
endloop
endfacet
facet normal 0.951056516295153 -0.309016994374948 1.99608891435945e-017
outer loop
vertex 5.42896231479612 -2.55467574939043 30
vertex 5.89372350437213 -1.12428788751435 30
vertex 5.42896231479612 -2.55467574939043 85
endloop
endfacet
facet normal 0.951056516295153 -0.309016994374948 1.73537194419607e-017
outer loop
vertex 5.42896231479612 -2.55467574939043 85
vertex 5.89372350437213 -1.12428788751435 30
vertex 5.89372350437213 -1.12428788751434 85
endloop
endfacet
facet normal 0.998026728428272 -0.0627905195293136 3.80244439143379e-018
outer loop
vertex 5.89372350437213 -1.12428788751435 30
vertex 5.98816037056963 0.376743117175882 30
vertex 5.89372350437213 -1.12428788751434 85
endloop
endfacet
facet normal 0.998026728428271 -0.0627905195293136 4.12150836746566e-018
outer loop
vertex 5.89372350437213 -1.12428788751434 85
vertex 5.98816037056963 0.376743117175882 30
vertex 5.98816037056963 0.376743117175885 85
endloop
endfacet
facet normal 0.982287250728689 0.187381314585725 -1.17256118999376e-017
outer loop
vertex 5.98816037056963 0.376743117175882 30
vertex 5.70633909777092 1.85410196624969 30
vertex 5.98816037056963 0.376743117175885 85
endloop
endfacet
facet normal 0.982287250728689 0.187381314585725 -1.12799176372744e-017
outer loop
vertex 5.98816037056963 0.376743117175885 85
vertex 5.70633909777092 1.85410196624969 30
vertex 5.70633909777092 1.85410196624969 85
endloop
endfacet
facet normal 0.904827052466019 0.425779291565073 -2.75031256962404e-017
outer loop
vertex 5.70633909777092 1.85410196624969 30
vertex 5.06596755301209 3.21496076987398 30
vertex 5.70633909777092 1.85410196624969 85
endloop
endfacet
facet normal 0.904827052466019 0.425779291565073 -2.6030579162941e-017
outer loop
vertex 5.70633909777092 1.85410196624969 85
vertex 5.06596755301209 3.21496076987398 30
vertex 5.06596755301209 3.21496076987398 85
endloop
endfacet
facet normal 0.770513242775789 0.637423989748689 -4.11742714104683e-017
outer loop
vertex 5.06596755301209 3.21496076987398 30
vertex 4.10728263557213 4.37381176452847 30
vertex 5.06596755301209 3.21496076987398 85
endloop
endfacet
facet normal 0.77051324277579 0.637423989748689 -3.99135547165095e-017
outer loop
vertex 5.06596755301209 3.21496076987398 85
vertex 4.10728263557213 4.37381176452847 30
vertex 4.10728263557213 4.37381176452847 85
endloop
endfacet
facet normal 0.587785252292473 0.809016994374948 -5.2258286223599e-017
outer loop
vertex 4.10728263557213 4.37381176452847 30
vertex 2.89052204461029 5.25784008026318 30
vertex 4.10728263557213 4.37381176452847 85
endloop
endfacet
facet normal 0.587785252292473 0.809016994374947 -5.37965302700781e-017
outer loop
vertex 4.10728263557213 4.37381176452847 85
vertex 2.89052204461029 5.25784008026318 30
vertex 2.89052204461029 5.25784008026319 85
endloop
endfacet
facet normal 0.368124552684678 0.929776485888251 -6.00587207207682e-017
outer loop
vertex 2.89052204461029 5.25784008026318 30
vertex 1.49213932298913 5.81149896677179 30
vertex 2.89052204461029 5.25784008026319 85
endloop
endfacet
facet normal 0.368124552684678 0.929776485888251 -5.90026461026663e-017
outer loop
vertex 2.89052204461029 5.25784008026319 85
vertex 1.49213932298913 5.81149896677179 30
vertex 1.49213932298913 5.81149896677179 85
endloop
endfacet
facet normal 0.125333233564304 0.992114701314478 -6.40854449145276e-017
outer loop
vertex 1.49213932298913 5.81149896677179 30
vertex 0 6 30
vertex 1.49213932298913 5.81149896677179 85
endloop
endfacet
facet normal 0 -0 1
outer loop
vertex 3.52671151375484 -4.85410196624968 85
vertex 4.62307945665474 -3.82454393849213 85
vertex 2.20874731610807 -5.5786589153295 85
endloop
endfacet
facet normal 0 -0 1
outer loop
vertex 4.62307945665474 -3.82454393849213 85
vertex 5.42896231479612 -2.55467574939043 85
vertex 2.20874731610807 -5.5786589153295 85
endloop
endfacet
facet normal 0 -0 1
outer loop
vertex 2.20874731610807 -5.5786589153295 85
vertex 5.42896231479612 -2.55467574939043 85
vertex 0.751999401385824 -5.95268820788686 85
endloop
endfacet
facet normal 0 -0 1
outer loop
vertex 5.42896231479612 -2.55467574939043 85
vertex 5.89372350437213 -1.12428788751434 85
vertex 0.751999401385824 -5.95268820788686 85
endloop
endfacet
facet normal 0 -0 1
outer loop
vertex 0.751999401385824 -5.95268820788686 85
vertex 5.89372350437213 -1.12428788751434 85
vertex -0.751999401385823 -5.95268820788686 85
endloop
endfacet
facet normal 0 -0 1
outer loop
vertex 5.89372350437213 -1.12428788751434 85
vertex 5.98816037056963 0.376743117175885 85
vertex -0.751999401385823 -5.95268820788686 85
endloop
endfacet
facet normal 0 -0 1
outer loop
vertex -0.751999401385823 -5.95268820788686 85
vertex 5.98816037056963 0.376743117175885 85
vertex -2.20874731610807 -5.5786589153295 85
endloop
endfacet
facet normal 0 0 1
outer loop
vertex 5.98816037056963 0.376743117175885 85
vertex 5.70633909777092 1.85410196624969 85
vertex -2.20874731610807 -5.5786589153295 85
endloop
endfacet
facet normal 0 -0 1
outer loop
vertex -2.20874731610807 -5.5786589153295 85
vertex 5.70633909777092 1.85410196624969 85
vertex -3.52671151375484 -4.85410196624968 85
endloop
endfacet
facet normal 0 0 1
outer loop
vertex 5.70633909777092 1.85410196624969 85
vertex 5.06596755301209 3.21496076987398 85
vertex -3.52671151375484 -4.85410196624968 85
endloop
endfacet
facet normal 0 -0 1
outer loop
vertex -3.52671151375484 -4.85410196624968 85
vertex 5.06596755301209 3.21496076987398 85
vertex -4.62307945665474 -3.82454393849213 85
endloop
endfacet
facet normal 0 0 1
outer loop
vertex 5.06596755301209 3.21496076987398 85
vertex 4.10728263557213 4.37381176452847 85
vertex -4.62307945665474 -3.82454393849213 85
endloop
endfacet
facet normal 0 0 1
outer loop
vertex -4.62307945665474 -3.82454393849213 85
vertex 4.10728263557213 4.37381176452847 85
vertex 2.89052204461029 5.25784008026319 85
endloop
endfacet
facet normal 0 0 1
outer loop
vertex -2.89052204461029 5.25784008026319 85
vertex -4.10728263557213 4.37381176452848 85
vertex -5.06596755301209 3.21496076987399 85
endloop
endfacet
facet normal -0 0 1
outer loop
vertex -1.49213932298913 5.81149896677179 85
vertex -2.89052204461029 5.25784008026319 85
vertex 0 6.00000000000001 85
endloop
endfacet
facet normal -0 0 1
outer loop
vertex -2.89052204461029 5.25784008026319 85
vertex -4.62307945665474 -3.82454393849213 85
vertex 0 6.00000000000001 85
endloop
endfacet
facet normal 0 0 1
outer loop
vertex 0 6.00000000000001 85
vertex -4.62307945665474 -3.82454393849213 85
vertex 1.49213932298913 5.81149896677179 85
endloop
endfacet
facet normal 0 0 1
outer loop
vertex -4.62307945665474 -3.82454393849213 85
vertex 2.89052204461029 5.25784008026319 85
vertex 1.49213932298913 5.81149896677179 85
endloop
endfacet
facet normal -0 -0 1
outer loop
vertex -5.42896231479612 -2.55467574939043 85
vertex -4.62307945665474 -3.82454393849213 85
vertex -5.89372350437213 -1.12428788751434 85
endloop
endfacet
facet normal 0 -0 1
outer loop
vertex -4.62307945665474 -3.82454393849213 85
vertex -2.89052204461029 5.25784008026319 85
vertex -5.89372350437213 -1.12428788751434 85
endloop
endfacet
facet normal 0 -0 1
outer loop
vertex -5.89372350437213 -1.12428788751434 85
vertex -2.89052204461029 5.25784008026319 85
vertex -5.98816037056963 0.376743117175888 85
endloop
endfacet
facet normal 0 0 1
outer loop
vertex -2.89052204461029 5.25784008026319 85
vertex -5.06596755301209 3.21496076987399 85
vertex -5.98816037056963 0.376743117175888 85
endloop
endfacet
facet normal 0 0 1
outer loop
vertex -5.98816037056963 0.376743117175888 85
vertex -5.06596755301209 3.21496076987399 85
vertex -5.70633909777092 1.85410196624969 85
endloop
endfacet
endsolid
